<svg width="48" height="63" viewBox="0 0 48 63" fill="none" xmlns="http://www.w3.org/2000/svg">
<path d="M6.58815 40.5024C7.08084 41.2594 6.85646 42.266 6.08698 42.7507C5.3175 43.2354 4.2943 43.0147 3.80161 42.2577C3.56997 41.9018 3.49197 41.5035 3.55647 41.1253C3.60655 40.8317 3.5429 40.5063 3.31433 40.3111C1.79713 39.0159 -1.02808 35.53 0.384041 30.9698L7.41111 6.43334C7.46962 6.22903 7.63486 6.0712 7.84416 6.01969L32.2259 0.0188888C32.7706 -0.115172 33.1885 0.492937 32.8591 0.940277L28.8031 6.44837C28.6373 6.67356 28.6532 6.98194 28.8413 7.18948L32.1559 10.8468C32.5609 11.2936 32.0756 12.1229 31.4671 12.1124C24.6915 11.995 15.0027 19.2128 16.8895 29.2398C16.9872 29.7591 16.4202 30.197 15.9518 29.939L10.0001 26.6615C9.81906 26.5618 9.59862 26.5609 9.41677 26.6591L1.16904 31.1125C1.01206 31.1973 0.900997 31.3453 0.870711 31.5189C0.518235 33.5397 0.423342 36.9685 3.94764 39.9955C4.04604 40.08 4.19278 40.0786 4.30279 40.0093C5.07227 39.5246 6.09546 39.7454 6.58815 40.5024Z" fill="black"/>
<path d="M45.6005 20.3201C50.1243 27.2709 48.064 36.5135 40.9988 40.964C37.6001 43.1049 33.8515 43.6278 30.2056 42.9252C29.7313 42.8338 29.2735 43.1747 29.2624 43.6502L28.9693 56.2357C28.9636 56.4818 28.8338 56.709 28.623 56.8418L20.5357 61.9361C20.0392 62.2489 19.3866 61.9035 19.3783 61.3235L18.9643 32.2916C18.9613 32.0794 19.2696 31.9986 19.3858 32.1773C22.0956 36.3409 27.7232 37.555 31.9553 34.8891C36.1875 32.2232 37.4216 26.6868 34.7118 22.5232C32.002 18.3596 26.3744 17.1454 22.1423 19.8113C21.6774 20.1042 21.2639 20.4235 20.8995 20.75C20.0229 21.5386 19.3314 22.4719 18.8388 23.4878C18.8567 23.4422 18.8779 23.3923 18.9023 23.3386C20.0011 20.726 20.2661 18.5334 24.6167 15.7929C31.6819 11.3424 41.0767 13.3693 45.6005 20.3201Z" fill="#37ADBE"/>
<path d="M26.2087 32.0962L28.8198 27.4645L24.2568 27.1763L26.2087 32.0962Z" fill="#3765BE"/>
<path d="M26.9235 21.8069L24.2568 27.1763L28.8198 27.4645L26.9235 21.8069Z" fill="#BE3737"/>
</svg>
